<svg width="24" height="24" viewBox="0 0 24 24" fill="none" xmlns="http://www.w3.org/2000/svg">
<circle cx="12" cy="12" r="11.5" fill="#292F47" stroke="white"/>
<rect width="13.5" height="13.5" transform="translate(5.25 5.25)" fill="#292F47"/>
<path d="M13.977 6.60381L12.8113 6.60156C11.5017 6.60156 10.6554 7.64479 10.6554 9.25946V10.4849H9.48334C9.38206 10.4849 9.30005 10.5836 9.30005 10.7053V12.4808C9.30005 12.6025 9.38216 12.701 9.48334 12.701H10.6554V17.1813C10.6554 17.303 10.7374 17.4016 10.8387 17.4016H12.3679C12.4692 17.4016 12.5512 17.3029 12.5512 17.1813V12.701H13.9216C14.0229 12.701 14.1049 12.6025 14.1049 12.4808L14.1054 10.7053C14.1054 10.6468 14.0861 10.5909 14.0518 10.5495C14.0174 10.5082 13.9707 10.4849 13.922 10.4849H12.5512V9.44608C12.5512 8.94677 12.6502 8.69329 13.1916 8.69329L13.9768 8.69296C14.078 8.69296 14.16 8.59431 14.16 8.47274V6.82403C14.16 6.70257 14.0781 6.60403 13.977 6.60381Z" fill="white"/>
</svg>
