<svg width="24" height="24" viewBox="0 0 24 24" fill="none" xmlns="http://www.w3.org/2000/svg">
<circle cx="12" cy="12" r="11.5" fill="#292F47" stroke="white"/>
<path fill-rule="evenodd" clip-rule="evenodd" d="M8.96716 5.0405C9.68695 5.00736 9.91645 5 11.75 5C13.5835 5 13.813 5.00798 14.5322 5.0405C15.2514 5.07302 15.7423 5.18777 16.1719 5.35407C16.6217 5.52405 17.0297 5.78975 17.3672 6.13339C17.7109 6.47027 17.976 6.87773 18.1453 7.32814C18.3122 7.75768 18.4264 8.24859 18.4595 8.96655C18.4926 9.68757 18.5 9.91707 18.5 11.75C18.5 13.5835 18.492 13.813 18.4595 14.5328C18.427 15.2508 18.3122 15.7417 18.1453 16.1713C17.976 16.6217 17.7104 17.0298 17.3672 17.3672C17.0297 17.7109 16.6217 17.976 16.1719 18.1453C15.7423 18.3122 15.2514 18.4264 14.5335 18.4595C13.813 18.4926 13.5835 18.5 11.75 18.5C9.91645 18.5 9.68695 18.492 8.96716 18.4595C8.2492 18.427 7.7583 18.3122 7.32875 18.1453C6.87829 17.9759 6.47016 17.7104 6.13277 17.3672C5.78937 17.0301 5.52362 16.6222 5.35407 16.1719C5.18777 15.7423 5.07364 15.2514 5.0405 14.5335C5.00736 13.8124 5 13.5829 5 11.75C5 9.91645 5.00798 9.68695 5.0405 8.96777C5.07302 8.24859 5.18777 7.75768 5.35407 7.32814C5.52388 6.87778 5.78982 6.46985 6.13339 6.13277C6.4703 5.78944 6.87802 5.5237 7.32814 5.35407C7.75768 5.18777 8.24859 5.07364 8.96655 5.0405H8.96716ZM14.4776 6.2555C13.7658 6.22298 13.5523 6.21623 11.75 6.21623C9.94775 6.21623 9.7342 6.22298 9.02239 6.2555C8.36395 6.28557 8.00682 6.39541 7.76873 6.48807C7.45393 6.6108 7.22873 6.75623 6.99248 6.99248C6.76853 7.21035 6.59618 7.47558 6.48807 7.76873C6.39541 8.00682 6.28557 8.36395 6.2555 9.02239C6.22298 9.7342 6.21623 9.94775 6.21623 11.75C6.21623 13.5523 6.22298 13.7658 6.2555 14.4776C6.28557 15.136 6.39541 15.4932 6.48807 15.7313C6.59607 16.024 6.7685 16.2897 6.99248 16.5075C7.21032 16.7315 7.47602 16.9039 7.76873 17.0119C8.00682 17.1046 8.36395 17.2144 9.02239 17.2445C9.7342 17.277 9.94714 17.2838 11.75 17.2838C13.5529 17.2838 13.7658 17.277 14.4776 17.2445C15.136 17.2144 15.4932 17.1046 15.7313 17.0119C16.0461 16.8892 16.2713 16.7438 16.5075 16.5075C16.7315 16.2897 16.9039 16.024 17.0119 15.7313C17.1046 15.4932 17.2144 15.136 17.2445 14.4776C17.277 13.7658 17.2838 13.5523 17.2838 11.75C17.2838 9.94775 17.277 9.7342 17.2445 9.02239C17.2144 8.36395 17.1046 8.00682 17.0119 7.76873C16.8892 7.45393 16.7438 7.22873 16.5075 6.99248C16.2896 6.76854 16.0244 6.5962 15.7313 6.48807C15.4932 6.39541 15.136 6.28557 14.4776 6.2555V6.2555ZM10.8878 13.8308C11.3693 14.0313 11.9055 14.0583 12.4047 13.9074C12.9039 13.7564 13.3353 13.4368 13.625 13.0032C13.9148 12.5696 14.045 12.0488 13.9935 11.5298C13.9419 11.0108 13.7118 10.5258 13.3424 10.1576C13.1069 9.92227 12.8222 9.74207 12.5087 9.62998C12.1952 9.51789 11.8607 9.4767 11.5294 9.50938C11.1981 9.54206 10.8781 9.64779 10.5926 9.81897C10.307 9.99014 10.063 10.2225 9.87798 10.4993C9.69301 10.7761 9.57171 11.0905 9.52282 11.4198C9.47393 11.7492 9.49866 12.0852 9.59524 12.4038C9.69182 12.7225 9.85784 13.0157 10.0814 13.2624C10.3049 13.5092 10.5803 13.7033 10.8878 13.8308ZM9.29668 9.29668C9.61886 8.97451 10.0013 8.71895 10.4223 8.54459C10.8432 8.37023 11.2944 8.28048 11.75 8.28048C12.2056 8.28048 12.6568 8.37023 13.0777 8.54459C13.4987 8.71894 13.8811 8.97451 14.2033 9.29668C14.5255 9.61886 14.7811 10.0013 14.9554 10.4223C15.1298 10.8432 15.2195 11.2944 15.2195 11.75C15.2195 12.2056 15.1298 12.6568 14.9554 13.0777C14.7811 13.4987 14.5255 13.8811 14.2033 14.2033C13.5527 14.854 12.6702 15.2195 11.75 15.2195C10.8298 15.2195 9.94734 14.854 9.29668 14.2033C8.64602 13.5527 8.28048 12.6702 8.28048 11.75C8.28048 10.8298 8.64602 9.94734 9.29668 9.29668V9.29668ZM15.989 8.79718C16.0688 8.72187 16.1328 8.6313 16.177 8.53085C16.2212 8.43039 16.2448 8.32209 16.2464 8.21234C16.248 8.1026 16.2275 7.99365 16.1863 7.89195C16.145 7.79025 16.0838 7.69786 16.0062 7.62025C15.9286 7.54264 15.8362 7.4814 15.7345 7.44014C15.6328 7.39888 15.5238 7.37844 15.4141 7.38004C15.3043 7.38164 15.196 7.40524 15.0956 7.44945C14.9951 7.49366 14.9045 7.55757 14.8292 7.63741C14.6828 7.79268 14.6026 7.99892 14.6057 8.21234C14.6088 8.42577 14.695 8.62958 14.8459 8.78052C14.9968 8.93145 15.2006 9.01762 15.4141 9.02073C15.6275 9.02384 15.8337 8.94365 15.989 8.79718V8.79718Z" fill="white"/>
</svg>
