<svg width="24" height="24" viewBox="0 0 24 24" fill="none" xmlns="http://www.w3.org/2000/svg">
<circle cx="12" cy="12" r="11.5" fill="#292F47" stroke="white"/>
<g clip-path="url(#clip0_513_79)">
<path d="M18.075 8.39218C17.628 8.58211 17.1476 8.71003 16.6434 8.76768C17.1582 8.47261 17.5536 8.00506 17.7394 7.44786C17.258 7.72113 16.7244 7.91978 16.1564 8.02686C15.7023 7.56318 15.0537 7.27344 14.3369 7.27344C12.7275 7.27344 11.5449 8.71051 11.9084 10.2023C9.83735 10.103 8.00067 9.15336 6.77099 7.70999C6.11793 8.78222 6.43231 10.1849 7.54201 10.8952C7.13397 10.8826 6.74922 10.7755 6.41358 10.5967C6.38624 11.7019 7.21396 12.7359 8.41276 12.966C8.06193 13.0571 7.67769 13.0784 7.28686 13.0067C7.60377 13.9544 8.52414 14.6439 9.61561 14.6633C8.56767 15.4496 7.24737 15.8009 5.92505 15.6517C7.02817 16.3286 8.33885 16.7234 9.74622 16.7234C14.3744 16.7234 16.9891 12.9825 16.8312 9.62722C17.3182 9.29048 17.7409 8.8704 18.075 8.39218Z" fill="white"/>
</g>
<defs>
<clipPath id="clip0_513_79">
<rect width="13.5" height="13.5" fill="white" transform="translate(5.25 5.25)"/>
</clipPath>
</defs>
</svg>
