<svg width="24" height="24" viewBox="0 0 24 24" fill="none" xmlns="http://www.w3.org/2000/svg">
<circle cx="12" cy="12" r="11.5" fill="#292F47" stroke="white"/>
<path d="M17.6015 8.70249C17.1629 8.16746 16.3532 7.94922 14.8067 7.94922H9.19324C7.61143 7.94922 6.78797 8.18154 6.35104 8.75116C5.92505 9.30654 5.92505 10.1248 5.92505 11.2574V13.4161C5.92505 15.6102 6.43049 16.7242 9.19324 16.7242H14.8068C16.1478 16.7242 16.8909 16.5316 17.3717 16.0595C17.8647 15.5753 18.075 14.7847 18.075 13.4161V11.2574C18.075 10.063 18.0421 9.23989 17.6015 8.70249ZM13.7254 12.6348L11.1763 14.0019C11.1193 14.0325 11.057 14.0477 10.9948 14.0477C10.9243 14.0477 10.854 14.0282 10.7917 13.9895C10.6744 13.9166 10.6028 13.7861 10.6028 13.6454V10.9199C10.6028 10.7794 10.6742 10.6491 10.7913 10.5761C10.9084 10.5032 11.054 10.4982 11.1754 10.5629L13.7245 11.9213C13.8542 11.9904 13.9356 12.1278 13.9358 12.2777C13.936 12.4277 13.8549 12.5653 13.7254 12.6348Z" fill="white"/>
</svg>
